Coordinates
version=1
nRows=23
nColumns=30
inDegrees=yes

Units are S.I. units (second, meters, Newtons, ...)
Angles are in degrees.

endheader
time	floatyaw	floatroll	floatpitch	floatx	floaty	floatz	pro_sup_l	deviation_l	flexion_l	cmc_flexion_l	cmc_abduction_l	mp_flexion_l	ip_flexion_l	2mcp_flexion_l	2mcp_abduction_l	2pm_flexion_l	2md_flexion_l	3mcp_flexion_l	3mcp_abduction_l	3pm_flexion_l	3md_flexion_l	4mcp_flexion_l	4mcp_abduction_l	4pm_flexion_l	4md_flexion_l	5mcp_flexion_l	5mcp_abduction_l	5pm_flexion_l	5md_flexion_l
-1.495000	-160.147433	-5.066637	-73.570646	0.075585	-0.179766	-0.023345	96.825241	0.129153	-1.898836	14.778258	-0.064758	-25.413208	-41.034136	32.090626	6.649437	41.801445	29.408161	26.163130	4.180819	44.019846	30.013499	14.948155	-4.445683	52.319947	36.435910	0.848718	-7.745923	62.341311	43.011333
-1.485000	-160.147433	-5.066637	-73.570646	0.075435	-0.179644	-0.023493	96.769522	0.185639	-1.909910	14.731782	-0.055426	-25.429609	-41.034443	32.100386	6.656589	41.809947	29.399477	26.173211	4.179129	44.031273	30.031427	14.994093	-4.443189	52.286501	36.440900	0.904954	-7.742976	62.308711	43.010012
-1.475000	-160.147433	-5.066637	-73.570646	0.075251	-0.179499	-0.023653	96.703248	0.237506	-1.916612	14.671884	-0.043514	-25.451499	-41.038521	32.116280	6.673644	41.799245	29.377884	26.182581	4.177571	44.030447	30.035214	15.034748	-4.444933	52.253186	36.444655	0.957377	-7.739649	62.273820	42.993802
-1.465000	-160.147433	-5.066637	-73.570646	0.075028	-0.179337	-0.023828	96.615571	0.280415	-1.920654	14.602742	-0.026677	-25.476231	-41.049581	32.137074	6.701039	41.772764	29.347293	26.190081	4.176229	44.026379	30.028300	15.070955	-4.450778	52.223490	36.446893	1.002175	-7.738469	62.240886	42.965707
-1.455000	-160.147433	-5.066637	-73.570646	0.074765	-0.179171	-0.024018	96.496715	0.310977	-1.922984	14.533973	-0.001991	-25.496139	-41.063372	32.158787	6.735287	41.740791	29.314844	26.194592	4.175360	44.027742	30.015698	15.103034	-4.458921	52.200467	36.447827	1.037721	-7.741546	62.213773	42.932420
-1.445000	-160.147433	-5.066637	-73.570646	0.074461	-0.179012	-0.024224	96.343266	0.328149	-1.922468	14.476887	0.030616	-25.501317	-41.068383	32.177497	6.768697	41.716049	29.287953	26.197285	4.175463	44.036749	30.000538	15.130315	-4.466690	52.185825	36.447936	1.064528	-7.749140	62.195132	42.901637
-1.435000	-160.147433	-5.066637	-73.570646	0.074122	-0.178869	-0.024438	96.161171	0.333521	-1.916273	14.438992	0.067030	-25.485759	-41.052207	32.191844	6.792032	41.708091	29.271718	26.202152	4.176993	44.048039	29.983540	15.151739	-4.471741	52.179459	36.448484	1.084581	-7.759418	62.185560	42.880207
-1.425000	-160.147433	-5.066637	-73.570646	0.073756	-0.178744	-0.024654	95.964549	0.329918	-1.901964	14.420668	0.099853	-25.453179	-41.011092	32.203728	6.799084	41.719082	29.267647	26.213778	4.179942	44.053206	29.965344	15.166699	-4.472982	52.180175	36.452245	1.099965	-7.769479	62.183764	42.873592
-1.415000	-160.147433	-5.066637	-73.570646	0.073380	-0.178639	-0.024864	95.769760	0.318839	-1.880127	14.416622	0.120140	-25.417462	-40.955905	32.216748	6.790037	41.742988	29.273801	26.233563	4.183592	44.047314	29.949025	15.175479	-4.470764	52.186879	36.463070	1.111674	-7.776726	62.187710	42.885296
-1.405000	-160.147433	-5.066637	-73.570646	0.073005	-0.178554	-0.025064	95.586678	0.298081	-1.855657	14.420762	0.118903	-25.396070	-40.909113	32.232724	6.770853	41.768607	29.286029	26.256657	4.186615	44.032503	29.940130	15.179091	-4.466365	52.198482	36.483490	1.119804	-7.779584	62.195231	42.914897
-1.395000	-160.147433	-5.066637	-73.570646	0.072637	-0.178488	-0.025260	95.411909	0.260971	-1.836309	14.430421	0.088434	-25.400305	-40.893807	32.247662	6.749068	41.784841	29.299722	26.271603	4.187525	44.016107	29.943800	15.178486	-4.461227	52.211845	36.511440	1.125203	-7.777487	62.203011	42.955365
-1.385000	-160.147433	-5.066637	-73.570646	0.072268	-0.178442	-0.025461	95.229142	0.197910	-1.828877	14.446952	0.023990	-25.428761	-40.921553	32.249998	6.729431	41.785492	29.311313	26.263802	4.185381	44.004884	29.960975	15.173497	-4.456460	52.219675	36.538701	1.131076	-7.770892	62.205215	42.992540
-1.375000	-160.147433	-5.066637	-73.570646	0.071888	-0.178415	-0.025679	95.017857	0.099822	-1.835189	14.473074	-0.074029	-25.467747	-40.986159	32.224384	6.712821	41.771581	29.318955	26.222546	4.180505	43.999917	29.986506	15.162404	-4.452756	52.211732	36.553310	1.142351	-7.761851	62.194618	43.009491
-1.365000	-160.147433	-5.066637	-73.570646	0.071487	-0.178403	-0.025916	94.765510	-0.038051	-1.850613	14.509575	-0.198233	-25.497908	-41.066330	32.161568	6.698904	41.750993	29.322460	26.149437	4.174917	43.996578	30.010791	15.143059	-4.450591	52.181244	36.545774	1.161860	-7.754768	62.167846	42.995455
-1.355000	-160.147433	-5.066637	-73.570646	0.071071	-0.178398	-0.026166	94.475151	-0.213915	-1.866562	14.553770	-0.334178	-25.503300	-41.135444	32.070202	6.689982	41.736436	29.323223	26.064216	4.172141	43.990557	30.024647	15.115805	-4.450476	52.134432	36.516359	1.185086	-7.756255	62.132698	42.955465
-1.345000	-160.147433	-5.066637	-73.570646	0.070659	-0.178387	-0.026417	94.163505	-0.419699	-1.876138	14.600348	-0.463098	-25.478696	-41.173634	31.982837	6.692733	41.742537	29.324884	26.003852	4.176176	43.986108	30.025329	15.087056	-4.453128	52.097045	36.479637	1.197573	-7.773334	62.112037	42.915025
-1.335000	-160.147433	-5.066637	-73.570646	0.070278	-0.178356	-0.026655	93.851690	-0.642925	-1.879745	14.643484	-0.566871	-25.432037	-41.176469	31.949335	6.716128	41.782189	29.334670	26.012818	4.189840	43.999919	30.020574	15.071080	-4.459471	52.111115	36.463081	1.178641	-7.810208	62.138808	42.915187
-1.325000	-160.147433	-5.066637	-73.570646	0.069949	-0.178293	-0.026873	93.556224	-0.868144	-1.886468	14.678343	-0.633407	-25.381066	-41.155937	32.016914	6.766504	41.862058	29.363989	26.126203	4.213165	44.055954	30.027835	15.087216	-4.470354	52.219444	36.498584	1.111309	-7.865096	62.241469	42.997249
-1.315000	-160.147433	-5.066637	-73.570646	0.069689	-0.178192	-0.027068	93.286982	-1.077093	-1.908809	14.701107	-0.660576	-25.345598	-41.133254	32.204756	6.842666	41.977950	29.426288	26.351555	4.242776	44.172549	30.068022	15.151758	-4.485962	52.443133	36.609277	0.993508	-7.929214	62.426325	43.182382
-1.305000	-160.147433	-5.066637	-73.570646	0.069503	-0.178055	-0.027239	93.052048	-1.249104	-1.952954	14.708287	-0.657304	-25.339012	-41.127453	32.487249	6.934133	42.112209	29.531542	26.658527	4.272852	44.349169	30.156365	15.267779	-4.505174	52.764171	36.797717	0.843462	-7.989289	62.667746	43.456783
-1.295000	-160.147433	-5.066637	-73.570646	0.069390	-0.177894	-0.027376	92.862865	-1.364264	-2.011349	14.696841	-0.640669	-25.363313	-41.146272	32.798023	7.023932	42.236294	29.679685	26.984449	4.297377	44.561908	30.295118	15.419352	-4.525392	53.125484	37.042239	0.694649	-8.032889	62.914601	43.772403
-1.285000	-160.147433	-5.066637	-73.570646	0.069343	-0.177727	-0.027473	92.732757	-1.409789	-2.064188	14.665535	-0.628755	-25.410431	-41.184471	33.055800	7.094860	42.320138	29.857253	27.256721	4.312504	44.771861	30.471809	15.575428	-4.543227	53.451930	37.304236	0.581969	-8.053674	63.111549	44.065045
-1.275000	-160.147433	-5.066637	-73.570646	0.069350	-0.177570	-0.027523	92.668585	-1.386707	-2.090007	14.616601	-0.631845	-25.468415	-41.229734	33.199353	7.136144	42.345172	30.040155	27.422185	4.317766	44.941905	30.663422	15.702560	-4.555808	53.682099	37.542478	0.526532	-8.053513	63.223582	44.280600
